PathFileType	4	(X/Y/Z)	C:/Users/beibeiliu/ov580/test_trc/User1\sequence.27_training_dense_left.trc
DataRate	CameraRate	NumFrames	NumMarkers	Units	OrigDataRate	OrigDataStartFrame	OrigNumFrames
120	120	24	19	mm	120	65	259
Frame#	Time	ThumbCMC			ThumbMCP			ThumbIP			ThumbTip			IndexMCP			IndexPIP			IndexTip			MiddleMCP			MiddlePIP			MiddleTip			RingMCP			RingPIP			RingTip			PinkyMCP			PinkyPIP			PinkyTip			BackHand1			BackHand2			BackHand3	
		X0	Y0	Z0	X1	Y1	Z1	X2	Y2	Z2	X3	Y3	Z3	X4	Y4	Z4	X5	Y5	Z5	X6	Y6	Z6	X7	Y7	Z7	X8	Y8	Z8	X9	Y9	Z9	X10	Y10	Z10	X11	Y11	Z11	X12	Y12	Z12	X13	Y13	Z13	X14	Y14	Z14	X15	Y15	Z15	X16	Y16	Z16	X17	Y17	Z17	X18	Y18	Z18	
64	0.533333	-138.807	39.6783	84.2528	-103.986	32.9379	65.2059	-87.0305	22.5389	37.3078	-78.0222	3.27807	24.2259	-168.693	29.5166	6.929	-166.095	26.6974	-23.1052	-155.89	23.134	-44.7023	-180.906	4.91816	5.12124	-178.198	-3.05725	-28.0195	-163.137	-11.2606	-56.0648	-166.643	-24.0047	9.36313	-149.597	-27.8494	-17.7998	-119.728	-28.77	-27.9626	-142.916	-38.4303	30.9695	-114.765	-36.9794	23.2387	-91.1846	-21.003	30.999	-179.139	-12.9506	67.2498	-181.827	-11.1232	100.91	-176.89	24.0426	78.4773	
65	0.541667	-139.672	40.0587	83.8593	-106.257	32.4095	57.8391	-90.886	22.4593	40.7114	-79.742	3.73354	21.5421	-169.958	28.8147	10.998	-165.622	22.3051	-22.1025	-152.373	17.0727	-47.8792	-180.74	1.7922	4.56254	-176.002	-8.67908	-27.2216	-159.107	-16.4646	-51.5546	-164.016	-21.3546	8.38288	-144.064	-27.6853	-17.84	-115.053	-29.5396	-23.6577	-138.041	-39.1426	29.8674	-110.974	-36.3252	27.1407	-94.7279	-9.79438	35.6513	-177.266	-14.9324	69.5759	-183.136	-15.5253	99.0116	-180.047	19.3114	79.7858	
66	0.55	-139.851	41.616	82.5994	-106.784	36.3636	58.7792	-92.5419	23.6122	35.151	-79.6562	4.75327	17.256	-171.244	27.9616	10.1063	-166.493	21.8166	-21.8576	-148.67	16.5797	-46.1115	-181.279	-3.17063	3.87514	-176.977	-6.50177	-25.6126	-150.325	-15.6652	-52.2952	-163.585	-24.8967	8.48901	-143.551	-31.8673	-17.1237	-115.747	-27.2283	-21.7626	-140.815	-41.7828	32.1629	-112.983	-32.6395	25.6001	-94.9299	-11.7425	40.416	-178.265	-15.3977	69.5258	-179.661	-15.9224	99.5836	-180.907	19.3131	80.2002	
67	0.558333	-141.625	42.1459	80.9912	-109.217	35.3036	57.039	-94.0884	25.497	31.0027	-85.9959	3.53264	14.2962	-172.733	22.1881	8.71029	-166.323	18.531	-21.5473	-146.322	14.3999	-43.891	-180.536	-5.82208	4.89833	-172.807	-11.5959	-28.3702	-145.77	-16.5902	-48.2369	-164.924	-26.5504	9.07584	-141.402	-30.0705	-17.5808	-112.529	-24.4962	-19.0277	-138.218	-42.9367	28.4602	-111.407	-33.0197	23.5986	-99.2461	-7.84532	39.4396	-179.125	-18.5797	69.0901	-178.274	-15.9666	98.98	-180.746	17.4474	79.429	
68	0.566667	-142.172	41.2992	81.4531	-110.407	36.3871	54.5954	-99.6428	25.2857	31.9769	-86.6042	6.36958	11.651	-174.466	20.4624	5.03599	-163.606	13.7125	-26.2004	-139.608	8.19521	-40.4778	-183.056	-8.76295	4.65603	-172.918	-15.1596	-26.1971	-141.857	-13.5256	-44.2535	-167.705	-26.4164	10.6349	-145.515	-30.9222	-16.9319	-115.875	-27.9937	-17.4888	-142.567	-46.6586	28.4229	-116.863	-34.6406	17.2952	-102.47	-10.9019	29.8979	-178.127	-19.7408	66.3167	-179.25	-20.1815	101.061	-180.1	13.9776	78.6477	
69	0.575	-144.908	36.984	82.3993	-115.213	34.8221	51.3807	-102.308	26.6838	27.2594	-89.5029	8.4574	9.92615	-176.749	19.9317	4.16032	-161.928	10.5849	-24.8089	-134.581	7.66834	-35.7601	-184.479	-12.8502	2.47338	-172.827	-18.2803	-26.2657	-135.91	-13.4889	-38.9905	-169.926	-32.5677	11.1639	-151.485	-35.5839	-16.118	-120.637	-25.7249	-16.7238	-147.682	-48.4892	26.4357	-124.3	-38.2893	11.8755	-103.58	-19.3237	20.5601	-178.751	-23.8127	71.8201	-176.421	-22.2652	105.913	-180.763	11.9074	80.7358	
70	0.583333	-146.024	39.0141	80.8406	-119.81	33.4829	52.5855	-105.482	26.9508	25.9976	-94.5594	7.82335	7.1277	-179.53	15.5738	4.57919	-167.459	9.55436	-22.3155	-130.177	6.87244	-30.9564	-186.236	-12.1665	5.57244	-173.099	-20.3974	-25.0705	-137.822	-11.5604	-33.8036	-174.784	-35.8505	14.3232	-153.991	-34.9489	-16.7843	-121.362	-27.2136	-12.9002	-152.143	-52.2131	27.0311	-131.045	-48.2367	9.42947	-109.008	-21.511	16.2551	-178.558	-27.3221	70.7753	-175.611	-19.0014	105.212	-181.324	10.3228	82.1173	
71	0.591667	-149.375	37.4045	76.5771	-120.205	36.9638	52.3887	-109.87	25.5432	25.7204	-95.5984	7.29823	6.15644	-179.432	6.52145	5.59778	-162.585	3.6854	-22.6348	-128.445	7.42011	-24.8887	-188.294	-17.7379	7.55136	-173.704	-20.9185	-24.7632	-133.744	-12.451	-27.468	-176.657	-37.3024	13.3212	-161.031	-40.6799	-12.9554	-124.744	-29.5895	-9.67925	-154.806	-53.4582	34.1133	-135.71	-48.8704	9.21151	-111.711	-25.0504	11.2461	-177.691	-28.8918	70.6606	-176.081	-22.9449	105.162	-183.556	10.7353	80.1918	
72	0.6	-150.231	38.433	80.0313	-123.147	35.761	50.1285	-110.626	28.0656	23.1148	-100.641	5.2386	6.72537	-181.535	3.69703	5.35136	-163.809	-1.30416	-21.2688	-131.988	8.03279	-21.9507	-188.339	-24.2769	6.3149	-169.445	-27.2301	-23.5753	-134.984	-15.6405	-21.533	-176.633	-41.8374	16.1184	-158.483	-41.4859	-13.3614	-126.976	-27.399	-6.91623	-155.316	-51.5482	33.9545	-136.773	-51.2945	9.75652	-110.614	-29.3144	10.9143	-177.151	-31.8192	75.293	-175.22	-22.4615	109.11	-183.463	5.92832	83.0706	
73	0.608333	-152.983	36.6122	79.9879	-128.16	32.5333	46.9128	-114.533	22.8544	19.7329	-100	5.58162	5.47517	-183.039	4.036	6.88456	-164.629	0.949868	-22.5075	-129.512	9.46183	-16.2237	-188.638	-22.511	7.94731	-172.955	-27.9302	-21.7646	-133.592	-13.1321	-16.3792	-176.435	-40.5966	18.1499	-155.947	-39.8505	-12.0691	-126.033	-26.9536	-1.71893	-152.983	-53.6318	30.5673	-132.285	-51.0227	10.2139	-113.244	-23.4461	17.0364	-176.567	-29.3945	72.3217	-173.356	-27.969	105.266	-184.291	3.83439	81.0563	
74	0.616667	-155.178	33.8606	78.4531	-128.106	35.748	45.5632	-116.557	22.545	18.5196	-101.805	5.55975	3.39938	-182.762	1.56944	6.27281	-163.477	-2.00388	-20.7131	-132.478	13.3469	-16.5066	-189.156	-25.2069	5.98149	-170.804	-27.7674	-21.853	-137.022	-10.5872	-17.7991	-174.562	-40.3826	18.5151	-151.308	-42.1242	-11.7868	-127.772	-27.8089	-1.25611	-149.566	-55.2362	32.7883	-133.056	-48.0918	12.0329	-113.358	-21.8853	19.5145	-172.126	-32.9921	76.307	-174.559	-23.468	107.607	-185.006	4.45772	82.1611	
75	0.625	-156.695	36.9233	76.0326	-129.796	33.8832	44.9008	-118.231	25.862	19.8637	-103.224	5.21621	4.09826	-183.648	-2.54392	6.80954	-161.584	-2.90564	-20.7437	-134.535	14.6564	-17.1113	-188.476	-26.3997	7.75521	-170.072	-29.8157	-22.1705	-134.502	-10.1044	-14.7183	-170.979	-45.1147	16.5455	-152.164	-40.0508	-11.511	-122.668	-23.8349	4.0281	-147.348	-51.8516	34.194	-127.237	-47.3976	12.0492	-112.271	-17.5397	21.0915	-174.411	-30.5498	70.8031	-172.645	-23.0635	108.858	-185.518	1.70672	84.9378	
76	0.633333	-158.552	37.4925	73.201	-131.115	37.4249	44.3098	-120.487	23.1338	19.7813	-103.96	6.37555	2.27946	-186.626	2.23921	6.97883	-167.504	-1.07353	-23.2094	-136.352	11.3441	-18.477	-188.414	-28.7102	6.26434	-169.566	-31.8506	-22.7071	-137.756	-11.4416	-19.6356	-171.57	-41.8614	16.4723	-147.066	-42.0667	-10.9354	-123.774	-25.3878	1.83528	-144.23	-53.6913	31.936	-124.927	-44.7614	12.3664	-108.61	-13.2386	23.6524	-171.886	-30.492	75.1385	-171.912	-28.2714	105.518	-187.075	0.0782117	80.41	
77	0.641667	-159.579	34.1449	76.826	-133.66	34.7902	44.5147	-119.335	26.4269	19.139	-104.868	8.94591	4.00642	-185.77	-2.99468	7.67878	-168.462	-5.07122	-23.1086	-136.207	9.51728	-22.9993	-188.373	-28.8076	8.07582	-173.107	-32.032	-22.1533	-137.608	-15.2632	-20.3289	-168.422	-44.7264	15.0582	-144.418	-41.6331	-9.86847	-121.18	-21.9919	3.90239	-143.018	-51.4911	29.8534	-121.893	-39.6031	12.9426	-111.897	-13.8387	24.2903	-173.488	-34.5917	73.8091	-169.994	-27.266	107.033	-186.916	-1.81526	80.9295	
78	0.65	-160.819	38.0423	75.5172	-134.527	34.9931	42.0682	-120.645	26.1911	19.8453	-106.509	7.95589	5.0552	-186.256	-4.52889	5.54565	-173.726	-7.61979	-22.8012	-143.12	4.31538	-29.1263	-185.316	-33.213	11.8288	-170.107	-33.4685	-24.5054	-139.747	-14.5032	-26.0899	-167.293	-44.8075	17.993	-143.351	-43.1919	-10.1936	-122.212	-23.1244	0.558285	-140.745	-50.1797	34.2774	-118.652	-36.1138	14.3313	-109.646	-9.94489	26.737	-170.58	-30.8118	75.1232	-169.277	-26.1091	105.181	-186.064	1.51284	81.1015	
79	0.658333	-161.975	35.5607	73.3206	-134.792	37.3955	42.5995	-119.871	30.7806	17.0803	-103.944	12.9054	1.80761	-186.728	-7.05436	8.06218	-172.255	-11.7768	-24.4041	-148.738	-0.687533	-35.6506	-184.851	-34.9385	9.85302	-174.771	-36.1651	-22.6274	-140.692	-19.8684	-28.9679	-165.625	-45.9992	12.6253	-141.77	-42.28	-9.77012	-121.698	-19.5215	0.0905476	-136.963	-49.3972	32.0243	-115.99	-36.6321	14.9196	-109.599	-7.7017	28.3368	-168.151	-33.0975	75.2682	-171.123	-25.9567	104.524	-187.904	-1.09569	80.5354	
80	0.666667	-163.611	32.9712	73.0836	-135.547	39.9862	44.5939	-122.575	29.0101	18.8461	-104.755	16.8544	3.81047	-189.45	-10.7612	4.75526	-176.228	-16.1494	-24.8964	-153.269	-3.94161	-41.2739	-184.469	-37.2223	9.84638	-172.455	-41.3849	-24.0707	-143.662	-22.799	-33.7436	-163.965	-45.18	15.5186	-144.841	-41.383	-10.8677	-121.646	-15.9158	0.432782	-130.453	-50.5614	30.4607	-116.659	-32.0431	16.8777	-108.876	-3.80124	30.3057	-169.472	-38.1964	70.4967	-169.982	-24.5957	104.532	-187.953	-2.20299	80.9236	
81	0.675	-165.647	36.9367	71.8445	-136.375	38.8639	42.4931	-122.431	32.9475	17.7433	-103.668	21.753	2.66783	-189.815	-10.3097	6.7304	-180.989	-20.522	-21.8005	-156.371	-13.7243	-43.5718	-185.594	-36.6586	8.47229	-176.295	-42.645	-24.7685	-142.63	-30.8009	-38.0052	-160.489	-48.2173	16.137	-140.754	-45.8756	-10.6491	-119.088	-16.3191	-2.15987	-130.065	-45.5941	28.8551	-113.241	-28.3325	17.3185	-107.483	0.224019	33.5374	-167.057	-37.5365	72.3252	-166.82	-29.2047	103.904	-187.193	-3.95497	78.8076	
82	0.683333	-167.204	34.4367	70.7011	-138.107	38.1254	46.2964	-121.601	32.6499	18.1551	-104.999	22.0269	2.24682	-191.479	-12.7702	6.2615	-185.31	-22.5758	-21.8618	-163.237	-23.2235	-44.2807	-182.952	-39.1723	12.4231	-173.79	-48.4198	-24.8564	-144.27	-38.3383	-42.8026	-158.644	-50.6527	15.3147	-137.183	-48.4548	-10.0973	-118.266	-19.9101	-6.38758	-128.833	-47.5092	34.4098	-108.702	-29.4262	18.8482	-107.668	-1.16764	33.2473	-168.727	-36.6058	68.6946	-169.889	-27.9002	103.605	-187.98	-6.83768	80.5526	
83	0.691667	-167.239	33.0598	73.2844	-137.888	41.0114	44.0294	-122.753	34.0378	20.2822	-102.957	26.7462	1.88836	-190.147	-13.878	7.55596	-185.345	-27.1263	-20.8856	-170.401	-30.0868	-45.3418	-180.68	-45.6274	10.5533	-171.848	-55.2033	-20.6707	-147.883	-48.9502	-43.5704	-156.077	-51.2102	16.9807	-135.1	-49.8937	-10.3425	-111.852	-23.5668	-7.17621	-124.082	-48.3884	35.1366	-104.682	-30.186	21.2591	-109.866	1.48569	33.8823	-164.359	-39.2091	70.097	-166.015	-30.487	104.516	-188.008	-7.62919	77.6755	
84	0.7	-169.661	31.4793	68.3171	-139.066	39.2154	42.0174	-123.302	39.3209	17.9628	-103.424	30.949	2.54908	-189.835	-17.074	8.47774	-184.484	-31.6812	-22.1263	-176.561	-35.2584	-44.257	-179.897	-45.0007	8.69891	-172.406	-58.7537	-18.1719	-151.643	-55.0638	-47.6961	-151.379	-53.7283	15.7674	-130.26	-46.369	-12.5039	-109.601	-21.2011	-10.0306	-123.084	-46.4594	31.6817	-103.105	-28.0354	21.8799	-108.779	2.64942	31.5213	-164.189	-42.6294	70.4438	-166.306	-29.4209	105.86	-188.682	-9.12347	77.0465	
85	0.708333	-169.626	31.7944	70.1549	-139.768	36.1384	43.1024	-123.655	35.3049	21.1166	-104.185	32.0966	1.92645	-187.354	-20.442	6.65943	-185.094	-31.6889	-16.4844	-177.779	-40.5113	-42.8293	-177.527	-45.1023	10.5094	-170.639	-57.8597	-21.9977	-152.782	-58.7676	-47.1263	-146.639	-54.2669	15.2791	-128.45	-45.1716	-12.8572	-103.644	-21.1483	-10.6527	-116.409	-47.2371	32.3281	-102.94	-26.0151	22.2967	-105.05	7.25495	35.279	-161.356	-41.588	72.4515	-167.242	-30.928	101.898	-187.736	-8.9406	79.1288	
86	0.716667	-170.514	29.3401	71.4095	-141.083	38.1371	43.076	-125.462	40.4343	21.5281	-104.686	33.4479	-0.331747	-185.073	-21.449	8.6674	-187.848	-32.6801	-18.6434	-180.847	-44.4054	-43.5859	-171.445	-47.6286	12.5064	-167.672	-58.2959	-17.8032	-148.367	-63.9889	-49.8647	-143.252	-49.8303	14.1627	-119.491	-41.5696	-11.8117	-101.076	-20.6471	-12.1627	-117.575	-42.7836	33.8904	-103.571	-18.4789	24.6605	-103.113	8.38573	36.8897	-159.105	-40.6055	73.6773	-167.713	-31.8435	101.562	-188.737	-10.9774	77.4023	
87	0.725	-171.364	30.2308	70.6516	-142.447	40.5395	42.5428	-126.857	36.6462	20.8467	-107.449	39.2538	1.14113	-185.583	-23.7562	6.84596	-185.601	-35.295	-16.0082	-182.307	-46.9399	-40.9747	-171.968	-47.5691	8.38645	-166.779	-58.4239	-19.7449	-150.417	-63.8763	-45.9917	-137.718	-50.4118	15.128	-118.354	-39.3039	-10.6288	-97.4468	-14.201	-11.9577	-115.278	-40.3641	35.7263	-98.36	-15.6414	27.9861	-102.436	11.1558	38.4967	-159.198	-42.8191	72.9111	-164.989	-31.6913	106.459	-187.239	-13.0112	77.5263	
